<?xml version="1.0" standalone="no"?>
<!DOCTYPE svg PUBLIC "-//W3C//DTD SVG 20010904//EN"
 "http://www.w3.org/TR/2001/REC-SVG-20010904/DTD/svg10.dtd">
<svg version="1.0" xmlns="http://www.w3.org/2000/svg"
 width="198.000000pt" height="190.000000pt" viewBox="0 0 198.000000 190.000000"
 preserveAspectRatio="xMidYMid meet">

<g transform="translate(0.000000,190.000000) scale(0.100000,-0.100000)"
fill="#9C060D" stroke="none">
<path d="M867 1582 c-10 -10 -17 -33 -17 -50 0 -31 -1 -32 -44 -32 -41 0 -45
-2 -48 -27 l-3 -28 -108 0 -107 0 0 -602 0 -603 485 0 485 0 0 603 0 602 -107
0 -108 0 -3 28 c-3 25 -7 27 -48 27 l-44 0 0 38 c0 21 -5 43 -12 50 -8 8 -58
12 -158 12 -130 0 -149 -2 -163 -18z m273 -62 c0 -19 -7 -20 -115 -20 -108 0
-115 1 -115 20 0 19 7 20 115 20 108 0 115 -1 115 -20z m-380 -185 l0 -25 265
0 265 0 0 25 c0 24 2 25 70 25 l70 0 0 -520 0 -520 -402 2 -403 3 -3 518 -2
517 70 0 c68 0 70 -1 70 -25z"/>
<path d="M984 1214 c-19 -26 -22 -27 -126 -25 -154 3 -148 9 -148 -157 0 -94
4 -142 12 -150 17 -17 269 -17 286 0 8 8 12 54 12 141 0 104 3 135 17 158 16
28 16 29 -2 44 -27 19 -28 19 -51 -11z m-64 -92 c0 -12 -50 -82 -59 -82 -5 0
-11 7 -15 15 -7 18 -25 19 -48 2 -15 -12 -14 -16 10 -55 38 -59 70 -58 112 3
17 25 33 45 35 45 3 0 5 -27 5 -60 l0 -61 -97 3 -98 3 -3 84 c-2 46 -1 90 2
98 4 9 27 13 81 13 41 0 75 -3 75 -8z"/>
<path d="M1090 1150 l0 -30 130 0 130 0 0 30 0 30 -130 0 -130 0 0 -30z"/>
<path d="M1090 1050 l0 -30 130 0 130 0 0 30 0 30 -130 0 -130 0 0 -30z"/>
<path d="M986 765 c-16 -24 -20 -25 -134 -25 -78 0 -122 -4 -130 -12 -8 -8
-12 -56 -12 -150 0 -126 2 -138 19 -148 11 -5 73 -10 139 -10 157 0 152 -5
152 167 0 104 3 133 15 143 21 17 19 37 -4 50 -26 14 -26 14 -45 -15z m-66
-90 c0 -3 -12 -24 -27 -46 l-27 -41 -18 22 c-17 21 -19 21 -43 6 l-25 -17 30
-44 c43 -62 68 -61 110 5 18 28 34 50 36 50 2 0 4 -29 4 -65 l0 -66 -97 3 -98
3 -3 84 c-2 46 -1 90 2 98 4 9 27 13 81 13 41 0 75 -2 75 -5z"/>
<path d="M1090 710 l0 -30 130 0 130 0 0 30 0 30 -130 0 -130 0 0 -30z"/>
<path d="M1090 600 l0 -30 130 0 130 0 0 30 0 30 -130 0 -130 0 0 -30z"/>
</g>
</svg>
