<?xml version="1.0" standalone="no"?>
<!DOCTYPE svg PUBLIC "-//W3C//DTD SVG 20010904//EN"
 "http://www.w3.org/TR/2001/REC-SVG-20010904/DTD/svg10.dtd">
<svg version="1.0" xmlns="http://www.w3.org/2000/svg"
 width="210.000000pt" height="184.000000pt" viewBox="0 0 210.000000 184.000000"
 preserveAspectRatio="xMidYMid meet">

<g transform="translate(0.000000,184.000000) scale(0.100000,-0.100000)"
fill="#163E6C" stroke="none">
<path d="M1281 1677 c-60 -70 -84 -128 -85 -206 -1 -62 -1 -63 -38 -82 l-38
-19 0 -435 c0 -239 2 -435 3 -435 2 0 37 8 78 19 160 40 399 35 540 -12 l69
-23 0 432 0 433 -26 20 c-14 11 -34 23 -44 26 -15 5 -18 17 -18 75 1 85 -29
154 -96 219 l-45 44 -47 -24 c-25 -13 -48 -30 -51 -38 -3 -7 -1 -35 5 -62 14
-61 8 -79 -28 -79 -35 0 -43 20 -30 75 5 22 10 47 10 57 0 16 -81 69 -104 67
-6 0 -31 -24 -55 -52z m81 -32 c3 -3 1 -26 -4 -50 -8 -36 -6 -52 11 -89 l20
-46 71 0 71 0 21 46 c17 39 18 53 9 88 -5 22 -7 44 -2 49 13 13 79 -69 91
-115 23 -82 -3 -154 -75 -215 l-45 -37 0 -263 0 -263 -70 0 -70 0 0 263 0 263
-46 38 c-99 83 -110 201 -28 300 30 35 37 40 46 31z"/>
<path d="M521 1425 c-36 -8 -85 -27 -110 -43 l-46 -28 -3 -436 -2 -436 67 23
c141 49 381 55 542 14 41 -10 76 -19 78 -19 1 0 3 196 3 435 l0 435 -22 14
c-13 8 -48 22 -78 31 -77 24 -340 30 -429 10z"/>
<path d="M521 455 c-35 -8 -85 -25 -110 -37 -44 -22 -46 -25 -49 -71 l-3 -48
30 15 c127 66 468 73 634 13 l62 -22 63 22 c166 60 472 54 645 -12 15 -6 17
-1 17 37 0 43 -1 45 -47 67 -153 70 -490 69 -632 -3 l-45 -23 -48 24 c-26 13
-82 30 -124 38 -95 19 -307 18 -393 0z"/>
</g>
</svg>
