<?xml version="1.0" standalone="no"?>
<!DOCTYPE svg PUBLIC "-//W3C//DTD SVG 20010904//EN"
 "http://www.w3.org/TR/2001/REC-SVG-20010904/DTD/svg10.dtd">
<svg version="1.0" xmlns="http://www.w3.org/2000/svg"
 width="234.000000pt" height="184.000000pt" viewBox="0 0 234.000000 184.000000"
 preserveAspectRatio="xMidYMid meet">

<g transform="translate(0.000000,184.000000) scale(0.100000,-0.100000)"
fill="#9C060D" stroke="none">
<path d="M1225 1619 c-77 -18 -95 -29 -95 -60 0 -39 -44 -63 -80 -44 -22 12
-28 10 -62 -17 -21 -16 -47 -42 -58 -58 -17 -24 -18 -32 -8 -54 16 -37 -5 -74
-45 -78 -27 -3 -33 -9 -48 -53 -25 -73 -24 -109 4 -122 19 -9 23 -17 19 -47
-2 -20 -9 -36 -15 -36 -6 0 8 -16 31 -36 52 -44 89 -105 98 -161 l6 -43 166
-95 166 -96 63 17 c55 15 74 16 126 6 41 -8 63 -8 65 -2 2 6 17 17 33 25 26
14 31 14 52 0 23 -15 26 -13 71 26 61 54 72 75 55 105 -18 35 4 74 43 74 24 0
32 6 44 36 8 20 18 58 21 84 5 43 3 49 -16 55 -31 9 -31 81 0 90 19 6 21 12
16 55 -3 26 -13 64 -21 84 -12 30 -20 36 -44 36 -39 0 -61 39 -43 74 17 30 6
51 -55 105 -45 39 -48 41 -71 26 -21 -14 -26 -14 -54 1 -25 12 -30 21 -26 40
6 32 -7 41 -88 59 -65 15 -70 15 -82 -1 -7 -10 -13 -21 -13 -26 0 -4 -15 -8
-33 -8 -26 0 -36 6 -45 25 -12 27 -16 28 -77 14z m272 -229 c68 -34 120 -87
155 -159 33 -66 33 -216 0 -282 -36 -74 -87 -125 -159 -161 -58 -28 -75 -32
-148 -32 -73 0 -90 4 -148 32 -76 38 -123 88 -163 176 -23 50 -26 67 -22 139
3 90 22 138 83 212 90 111 263 143 402 75z"/>
<path d="M1255 1339 c-43 -12 -110 -72 -143 -127 -23 -40 -27 -58 -27 -122 0
-64 4 -82 27 -122 34 -57 100 -115 147 -128 62 -17 150 -12 198 11 202 98 202
380 0 478 -46 22 -144 27 -202 10z m149 -113 c53 -22 90 -78 90 -136 0 -37 -6
-56 -28 -85 -90 -118 -266 -61 -266 86 0 107 105 176 204 135z"/>
<path d="M618 993 c-31 -8 -20 -22 26 -34 33 -8 51 -20 73 -52 l30 -40 -36
-64 -36 -63 -47 0 c-38 0 -54 6 -81 30 -44 38 -51 38 -43 -2 14 -72 86 -138
166 -153 35 -6 89 3 145 25 29 11 40 6 225 -101 107 -61 198 -117 202 -123 4
-6 8 -26 8 -44 0 -18 6 -47 13 -65 17 -40 88 -105 122 -112 60 -12 72 -13 109
-7 53 9 55 26 7 41 -26 7 -51 25 -71 51 l-31 39 37 67 37 66 50 -6 c38 -4 58
-13 83 -37 20 -19 34 -27 38 -20 8 13 -27 97 -52 124 -51 57 -162 75 -243 40
l-43 -19 -203 115 c-171 98 -203 120 -203 139 0 83 -55 168 -126 198 -32 13
-118 17 -156 7z"/>
</g>
</svg>
