<?xml version="1.0" standalone="no"?>
<!DOCTYPE svg PUBLIC "-//W3C//DTD SVG 20010904//EN"
 "http://www.w3.org/TR/2001/REC-SVG-20010904/DTD/svg10.dtd">
<svg version="1.0" xmlns="http://www.w3.org/2000/svg"
 width="188.000000pt" height="168.000000pt" viewBox="0 0 188.000000 168.000000"
 preserveAspectRatio="xMidYMid meet">

<g transform="translate(0.000000,168.000000) scale(0.100000,-0.100000)"
fill="#163E6C" stroke="none">
<path d="M610 1530 c-36 -11 -99 -36 -140 -57 -105 -53 -119 -83 -164 -355
-45 -265 -52 -356 -36 -433 l13 -60 16 60 15 60 7 -45 c4 -25 12 -83 18 -129
12 -93 32 -137 76 -162 51 -30 438 -118 567 -129 117 -10 242 -3 339 19 63 14
215 69 270 97 94 47 151 153 152 284 1 103 -22 167 -84 235 -130 142 -291 147
-462 15 l-60 -48 -61 29 c-81 38 -143 39 -217 2 l-54 -28 -1 -60 c0 -73 -25
-151 -59 -188 -14 -15 -27 -27 -29 -27 -2 0 5 24 15 53 25 71 25 182 0 248
-11 28 -39 79 -62 115 -23 35 -47 81 -54 101 -9 27 -21 40 -41 46 -41 14 -64
36 -64 64 0 13 -6 23 -12 22 -7 -1 -22 -1 -33 0 -15 2 -12 6 15 19 24 12 39
28 47 52 7 19 12 28 12 20 1 -9 16 -33 33 -55 25 -30 28 -37 13 -31 -33 14
-49 12 -53 -6 -8 -42 126 -71 154 -33 12 16 5 75 -16 129 -6 16 -9 31 -6 33 5
6 66 -117 66 -134 0 -15 2 -15 24 -7 24 9 20 57 -10 115 -14 28 -23 53 -21 55
7 7 57 -63 73 -102 12 -29 17 -34 29 -24 21 18 19 37 -15 110 l-30 65 29 -35
c17 -19 35 -48 42 -63 14 -33 33 -31 37 5 4 31 -39 120 -73 154 -20 20 -34 24
-82 23 -32 0 -87 -9 -123 -19z"/>
</g>
</svg>
