<?xml version="1.0" standalone="no"?>
<!DOCTYPE svg PUBLIC "-//W3C//DTD SVG 20010904//EN"
 "http://www.w3.org/TR/2001/REC-SVG-20010904/DTD/svg10.dtd">
<svg version="1.0" xmlns="http://www.w3.org/2000/svg"
 width="202.000000pt" height="204.000000pt" viewBox="0 0 202.000000 204.000000"
 preserveAspectRatio="xMidYMid meet">

<g transform="translate(0.000000,204.000000) scale(0.100000,-0.100000)"
fill="#163E6C" stroke="none">
<path d="M966 1721 c-3 -5 -2 -45 2 -89 9 -89 2 -98 -18 -25 -7 27 -17 52 -21
57 -5 6 -29 -11 -58 -40 -40 -40 -53 -62 -71 -122 -12 -40 -20 -75 -18 -77 2
-2 55 -13 118 -23 l115 -20 -142 -1 -143 -1 0 -70 0 -70 44 0 43 0 12 -102
c12 -107 42 -191 84 -237 76 -83 239 -80 319 5 51 55 88 176 88 292 l0 42 50
0 50 0 0 70 c0 63 -2 70 -20 70 -12 0 -21 8 -24 23 -21 98 -31 131 -56 170
-32 51 -97 105 -109 91 -5 -5 -16 -33 -26 -62 -9 -29 -19 -52 -21 -49 -2 2 0
40 4 86 4 45 6 84 3 86 -8 9 -200 5 -205 -4z"/>
<path d="M867 822 c-16 -3 -14 -10 14 -60 18 -31 35 -61 40 -66 4 -5 28 8 54
29 l46 38 -51 17 c-27 9 -58 24 -68 32 -9 8 -25 13 -35 10z"/>
<path d="M1233 809 c-6 -6 -34 -19 -62 -28 l-50 -16 46 -38 c25 -20 49 -37 52
-37 7 0 71 112 71 124 0 10 -45 7 -57 -5z"/>
<path d="M684 767 c-81 -31 -127 -60 -169 -109 -67 -79 -88 -151 -111 -376
l-7 -72 317 0 c247 0 318 3 322 13 2 7 3 113 2 235 l-3 223 -63 -51 c-34 -27
-66 -50 -70 -50 -5 0 -33 46 -63 103 -39 73 -60 103 -74 104 -11 1 -47 -8 -81
-20z"/>
<path d="M1305 685 c-32 -58 -63 -105 -68 -105 -5 0 -33 20 -61 45 -29 25 -56
45 -60 45 -3 0 -6 -103 -6 -230 l0 -230 315 0 315 0 0 24 c0 69 -42 301 -61
339 -51 101 -126 163 -237 197 -35 11 -67 20 -71 20 -3 0 -33 -48 -66 -105z
m170 -235 l0 -35 -122 -3 -123 -3 0 41 0 41 123 -3 122 -3 0 -35z"/>
</g>
</svg>
