<?xml version="1.0" standalone="no"?>
<!DOCTYPE svg PUBLIC "-//W3C//DTD SVG 20010904//EN"
 "http://www.w3.org/TR/2001/REC-SVG-20010904/DTD/svg10.dtd">
<svg version="1.0" xmlns="http://www.w3.org/2000/svg"
 width="240.000000pt" height="196.000000pt" viewBox="0 0 240.000000 196.000000"
 preserveAspectRatio="xMidYMid meet">

<g transform="translate(0.000000,196.000000) scale(0.100000,-0.100000)"
fill="#9C060D" stroke="none">
<path d="M1620 1735 l0 -45 -55 0 -55 0 0 -470 c0 -411 -2 -470 -15 -470 -12
0 -15 15 -15 79 0 74 -5 91 -80 291 -44 117 -85 219 -91 227 -9 10 -59 13
-224 13 -195 0 -213 -2 -229 -19 -15 -17 -17 -45 -14 -275 2 -141 0 -256 -3
-256 -3 0 -13 16 -22 35 l-17 35 -78 0 c-73 0 -80 -2 -105 -28 l-27 -28 0
-192 0 -192 48 0 c48 0 48 0 49 35 1 45 30 94 74 123 28 20 43 23 93 20 54 -4
62 -8 97 -45 27 -30 39 -53 44 -87 l7 -46 134 0 134 0 0 50 c0 65 18 108 64
148 44 38 70 46 140 40 60 -5 107 -33 137 -82 19 -31 19 -30 19 267 0 268 4
321 23 289 3 -4 103 -2 224 5 120 6 233 12 251 12 25 1 32 5 32 21 0 19 -7 20
-235 20 l-235 0 0 285 0 285 -35 0 c-35 0 -35 0 -35 -45z m-351 -443 c5 -10
44 -110 85 -222 62 -167 76 -215 76 -262 l0 -58 -50 0 c-28 0 -93 12 -145 26
-107 30 -93 12 -131 169 -17 73 -43 109 -71 98 -13 -5 -15 -19 -9 -92 6 -70
11 -89 28 -104 11 -10 19 -19 17 -22 -2 -2 -39 6 -82 18 l-77 22 0 222 0 223
175 0 c158 0 175 -2 184 -18z"/>
<path d="M1755 1460 l0 -180 218 0 217 0 0 180 0 180 -217 0 -218 0 0 -180z"/>
<path d="M1377 628 c-40 -23 -77 -86 -77 -129 0 -42 42 -111 80 -131 67 -35
142 -19 194 42 21 25 26 42 26 84 0 122 -119 194 -223 134z m123 -78 c11 -11
20 -33 20 -50 0 -65 -79 -94 -119 -44 -27 35 -26 59 4 89 29 30 68 32 95 5z"/>
<path d="M784 574 c-58 -28 -81 -103 -49 -164 41 -79 169 -79 210 0 56 109
-51 219 -161 164z m93 -68 c24 -21 26 -27 18 -52 -6 -18 -21 -33 -39 -39 -25
-8 -31 -6 -52 18 -30 35 -30 42 1 72 30 31 37 31 72 1z"/>
</g>
</svg>
